<svg width="85" height="85" viewBox="0 0 85 85" fill="none" xmlns="http://www.w3.org/2000/svg">
<path fill-rule="evenodd" clip-rule="evenodd" d="M27.2563 34.558C24.5722 20.724 22.3078 21.6312 18.1018 21.2497C7.99352 20.4025 3.41911 19.9257 1.95142 23.7343C2.24347 27.5503 3.25327 31.285 4.93249 34.7596C7.86788 39.5299 14.1584 37.631 35.677 36.8628C35.9693 36.8563 36.2469 36.7392 36.4488 36.5374C36.6507 36.3356 36.7603 36.0656 36.7535 35.7867C36.7466 35.5078 36.624 35.2429 36.4125 35.0503C36.2009 34.8576 35.9179 34.7531 35.6256 34.7596C32.8358 34.7541 30.0518 34.6561 27.2563 34.558ZM24.7749 34.4735C24.0229 31.1533 22.7889 27.9495 21.1085 24.9548C16.2177 24.2164 11.2579 23.9817 6.31452 24.2547C5.74914 24.2547 5.58067 24.2547 5.37223 24.7777C8.46466 37.4648 6.99983 33.8987 24.7778 34.4735H24.7749ZM36.6707 3.41643C37.8956 0.89372 25.0405 -3.79209 22.2935 5.64219C21.7147 7.41813 21.7659 9.32661 22.4392 11.072C23.1125 12.8173 24.3702 14.3022 26.0176 15.2964C27.665 16.2906 29.6101 16.7388 31.5515 16.5715C33.4929 16.4042 35.3223 15.6307 36.7563 14.3709C42.353 9.57609 38.8065 2.67269 36.6707 3.41643ZM36.031 3.96129C35.8679 4.01461 35.694 4.03104 35.523 4.0093C35.3521 3.98755 35.1887 3.92822 35.0459 3.83597C30.7513 1.32144 26.5167 2.93695 25.6515 6.46221C25.3004 7.56494 25.3359 8.74686 25.7526 9.82861C26.1692 10.9104 26.9444 11.8329 27.9605 12.4563C28.9765 13.0796 30.1779 13.3697 31.3824 13.2826C32.587 13.1955 33.7288 12.7359 34.6347 11.9735C35.2116 11.6227 35.7093 11.1657 36.0986 10.6291C36.488 10.0924 36.7611 9.48707 36.9021 8.84843C37.043 8.20979 37.049 7.55073 36.9195 6.90989C36.79 6.26904 36.5278 5.6593 36.1481 5.1164C36.0165 4.95394 35.9357 4.75931 35.915 4.55495C35.8943 4.35059 35.9345 4.1448 36.031 3.96129ZM27.0307 21.6693C37.5872 18.7488 46.8531 31.7683 41.7133 34.2774C41.4313 34.3887 41.207 34.6023 41.09 34.8713C40.973 35.1403 40.9728 35.4426 41.0894 35.7117C41.2061 35.9809 41.43 36.1948 41.7119 36.3064C41.9939 36.4181 42.3107 36.4183 42.5928 36.307C43.3574 36.0194 44.0385 35.561 44.5791 34.9704C45.1196 34.3798 45.5039 33.6741 45.6995 32.9125C47.9011 25.9928 38.8493 17.67 30.3487 18.5173C23.3443 19.4435 25.643 22.1733 27.0307 21.6693ZM17.4993 55.2328C17.7277 54.5735 17.9333 53.8842 18.1474 53.1786C19.3096 49.3346 20.606 45.0439 25.5116 42.4312C25.7764 42.2963 25.9757 42.0681 26.067 41.7953C26.1583 41.5224 26.1346 41.2263 26.0007 40.9699C25.8669 40.7135 25.6336 40.5169 25.3503 40.422C25.067 40.3271 24.7561 40.3413 24.4837 40.4616C21.7037 41.842 19.3121 43.8395 17.5103 46.2858C15.7084 48.7322 14.5491 51.5559 14.1298 54.519C13.1304 58.5237 8.47609 59.4227 9.25562 54.3446C9.2218 51.8669 9.78085 49.4144 10.8902 47.1739C11.9996 44.9334 13.63 42.9638 15.6575 41.4151C15.7839 41.3489 15.8953 41.2596 15.9855 41.1523C16.0757 41.045 16.1429 40.9218 16.1832 40.7898C16.2235 40.6577 16.2362 40.5194 16.2204 40.3827C16.2047 40.246 16.1609 40.1136 16.0915 39.993C16.0222 39.8724 15.9286 39.7661 15.8161 39.68C15.7037 39.594 15.5746 39.5299 15.4362 39.4914C15.2977 39.453 15.1528 39.4409 15.0095 39.4559C14.8662 39.4709 14.7274 39.5127 14.601 39.5789C4.54986 44.2375 2.414 63.1169 11.7684 61.2235C13.4217 60.8748 14.5839 60.1447 15.4519 59.1585C15.7584 59.932 16.2469 60.628 16.8799 61.1928C17.5129 61.7576 18.2733 62.1762 19.1027 62.4163C19.9321 62.6564 20.8081 62.7115 21.6634 62.5774C22.5186 62.4434 23.3301 62.1237 24.0353 61.6431C27.0764 59.6652 28.387 56.8973 29.6691 54.2002C30.4744 52.5003 31.2682 50.8276 32.4674 49.4C32.99 48.7625 33.9723 48.5991 35.1201 48.4029C37.8414 47.9452 41.5078 47.3268 42.2416 39.9085C42.2828 39.6201 42.2044 39.3278 42.0231 39.0937C41.8417 38.8597 41.5718 38.7024 41.2708 38.6553C40.9685 38.616 40.6621 38.6908 40.4167 38.8638C40.1714 39.0368 40.0065 39.2944 39.9573 39.5816C38.8037 44.8886 36.7677 45.0793 34.4605 45.2972C33.7467 45.3626 33.0043 45.4334 32.2561 45.6595C29.572 46.4768 28.13 49.4436 26.6452 52.4894C26.0085 53.7943 25.366 55.1129 24.615 56.2843C23.2644 58.3821 21.0086 60.6569 18.8813 59.2538C17.2994 58.2104 17.4222 57.0798 17.5164 56.189C17.5564 55.8239 17.5906 55.4943 17.4993 55.2328ZM62.0383 41.8891C62.3328 44.0015 61.9548 46.1495 60.9533 48.0542C73.5315 59.796 65.7276 67.7373 53.0266 64.7542L52.7382 64.6807C44.7915 65.2882 36.545 65.5306 35.4599 60.6759C35.3296 60.077 35.3301 59.4588 35.4614 58.8601C35.5927 58.2613 35.852 57.6948 36.2232 57.196C36.5943 56.6972 37.0693 56.2768 37.6185 55.961C38.1676 55.6453 38.7791 55.4409 39.4147 55.3608C39.7104 55.3379 40.004 55.4242 40.2348 55.602C40.4656 55.7798 40.616 56.0354 40.6549 56.316C40.6937 56.5965 40.6181 56.8806 40.4436 57.1095C40.2691 57.3384 40.0092 57.4945 39.7174 57.5457C39.3134 57.6734 38.9663 57.9272 38.7321 58.2663C38.4979 58.6053 38.3902 59.0098 38.4265 59.4143C38.4628 59.8189 38.6409 60.2 38.9321 60.4961C39.2233 60.7922 39.6106 60.9861 40.0315 61.0464C41.1451 61.3679 42.8727 61.4224 45.5539 61.5096C46.6199 61.5386 47.8478 61.5831 49.2374 61.6431C48.9205 60.5997 48.8776 59.341 48.8776 57.889C49.0775 52.2197 49.1346 51.3234 48.7263 51.0373C48.3922 50.7976 47.7383 50.9692 46.5847 49.2393C45.1221 46.3898 44.8605 43.1136 45.8537 40.0856C46.9102 35.9174 48.2323 34.0731 52.8267 38.1704C53.5182 38.1101 54.214 38.1101 54.9055 38.1704L55.6736 37.5166C57.4725 35.9855 58.3063 35.2745 59.3114 36.2035C60.7975 37.7948 61.7477 39.7758 62.0383 41.8891ZM59.5941 43.2976C59.6833 44.735 59.3782 46.1697 58.7089 47.4603C57.8808 48.2395 58.3063 48.6699 59.3742 49.7596C60.0881 50.487 61.0875 51.5086 62.2011 53.1241C63.7145 55.3254 65.3963 58.8833 63.3119 60.8312C62.1183 61.9536 58.5319 61.8038 56.6815 61.7248L56.4017 61.7139C54.5856 61.5858 53.5463 61.6322 52.9752 61.1609C51.9758 60.3272 52.4412 57.8917 52.7325 50.0865C52.7981 48.817 52.1157 48.6236 51.3105 48.3975C50.5966 48.1986 49.7828 47.9725 49.3174 46.94C48.5823 44.5864 48.6705 42.0684 49.5686 39.7669C50.1112 40.0774 50.491 40.4016 50.8193 40.6822C51.3904 41.1726 51.7987 41.5159 52.5897 41.3633C54.1602 41.05 54.8112 41.1672 55.2253 41.2407C55.8906 41.3606 55.9363 41.3688 58.2006 39.2629C59.0258 40.4697 59.5056 41.8646 59.5941 43.2976Z" fill="#134E48"/>
</svg>
