<svg width="70" height="70" viewBox="0 0 70 70" fill="none" xmlns="http://www.w3.org/2000/svg">
<path fill-rule="evenodd" clip-rule="evenodd" d="M22.4464 28.4595C20.2359 17.0668 18.3712 17.8139 14.9074 17.4998C6.58293 16.802 2.81577 16.4094 1.60709 19.5459C1.8476 22.6885 2.6792 25.7641 4.06209 28.6255C6.47947 32.554 11.6599 30.9902 29.3811 30.3576C29.6218 30.3522 29.8504 30.2558 30.0167 30.0896C30.183 29.9234 30.2732 29.701 30.2676 29.4714C30.262 29.2417 30.161 29.0235 29.9868 28.8649C29.8126 28.7063 29.5795 28.6202 29.3387 28.6255C27.0413 28.6211 24.7485 28.5403 22.4464 28.4595ZM20.4029 28.39C19.7836 25.6557 18.7673 23.0173 17.3835 20.551C13.3558 19.9429 9.27125 19.7496 5.20023 19.9744C4.73463 19.9744 4.59589 19.9744 4.42422 20.4052C6.97094 30.8534 5.7646 27.9166 20.4053 28.39H20.4029ZM30.1994 2.81353C31.2082 0.736005 20.6216 -3.1229 18.3594 4.64651C17.8828 6.10904 17.9249 7.68073 18.4794 9.11809C19.0338 10.5555 20.0696 11.7782 21.4263 12.597C22.783 13.4158 24.3848 13.7849 25.9836 13.6471C27.5825 13.5093 29.089 12.8723 30.2699 11.8348C34.8789 7.88619 31.9583 2.20104 30.1994 2.81353ZM29.6727 3.26224C29.5383 3.30615 29.3951 3.31968 29.2543 3.30177C29.1135 3.28386 28.979 3.235 28.8614 3.15904C25.3247 1.08824 21.8373 2.41867 21.1248 5.32182C20.8356 6.22995 20.8649 7.20329 21.208 8.09415C21.5512 8.98501 22.1896 9.74475 23.0263 10.2581C23.863 10.7714 24.8524 11.0104 25.8444 10.9386C26.8364 10.8669 27.7767 10.4883 28.5228 9.86051C28.9978 9.57167 29.4077 9.19526 29.7283 8.75334C30.049 8.31142 30.2739 7.81288 30.39 7.28694C30.5061 6.761 30.5109 6.21825 30.4043 5.69049C30.2977 5.16274 30.0817 4.6606 29.7691 4.2135C29.6607 4.07971 29.5942 3.91943 29.5771 3.75113C29.56 3.58284 29.5932 3.41336 29.6727 3.26224ZM22.2606 17.8453C30.9542 15.4402 38.585 26.1621 34.3522 28.2284C34.1199 28.3201 33.9352 28.496 33.8389 28.7175C33.7425 28.939 33.7424 29.188 33.8384 29.4097C33.9344 29.6313 34.1188 29.8075 34.351 29.8994C34.5832 29.9913 34.8442 29.9915 35.0765 29.8999C35.7061 29.663 36.2671 29.2856 36.7122 28.7992C37.1574 28.3128 37.4738 27.7316 37.6349 27.1044C39.448 21.4058 31.9936 14.5518 24.9931 15.2495C19.2248 16.0123 21.1178 18.2604 22.2606 17.8453ZM14.4112 45.4858C14.5993 44.9429 14.7686 44.3752 14.945 43.7942C15.9021 40.6285 16.9697 37.0949 21.0096 34.9434C21.2277 34.8322 21.3918 34.6443 21.467 34.4196C21.5422 34.1949 21.5226 33.9511 21.4124 33.7399C21.3022 33.5287 21.11 33.3669 20.8768 33.2887C20.6435 33.2105 20.3874 33.2222 20.163 33.3213C17.8737 34.4581 15.9041 36.1031 14.4202 38.1177C12.9364 40.1324 11.9816 42.4578 11.6364 44.898C10.8133 48.196 6.98034 48.9364 7.62231 44.7544C7.59446 42.7139 8.05486 40.6942 8.96845 38.8491C9.88205 37.0039 11.2248 35.3819 12.8945 34.1065C12.9985 34.052 13.0903 33.9785 13.1646 33.8901C13.2389 33.8018 13.2942 33.7003 13.3274 33.5916C13.3606 33.4828 13.371 33.3689 13.358 33.2563C13.3451 33.1437 13.309 33.0347 13.2519 32.9354C13.1948 32.8361 13.1177 32.7485 13.0251 32.6777C12.9325 32.6068 12.8261 32.554 12.7122 32.5223C12.5982 32.4907 12.4788 32.4807 12.3608 32.4931C12.2428 32.5055 12.1285 32.5399 12.0244 32.5944C3.74698 36.4308 1.98804 51.9786 9.69166 50.4194C11.0532 50.1322 12.0103 49.5309 12.7251 48.7188C12.9775 49.3557 13.3798 49.9289 13.9011 50.3941C14.4224 50.8592 15.0487 51.2039 15.7317 51.4016C16.4147 51.5993 17.1361 51.6447 17.8404 51.5343C18.5447 51.4239 19.2131 51.1607 19.7939 50.7649C22.2982 49.1361 23.3776 46.8566 24.4334 44.6355C25.0966 43.2355 25.7503 41.858 26.7379 40.6824C27.1683 40.1574 27.9772 40.0228 28.9225 39.8612C31.1635 39.4843 34.1829 38.975 34.7872 32.8658C34.8212 32.6283 34.7566 32.3876 34.6073 32.1948C34.4579 32.0021 34.2357 31.8725 33.9877 31.8338C33.7388 31.8014 33.4864 31.863 33.2844 32.0055C33.0824 32.148 32.9466 32.3601 32.906 32.5966C31.956 36.9671 30.2793 37.1241 28.3793 37.3036C27.7914 37.3574 27.18 37.4158 26.5639 37.602C24.3535 38.275 23.166 40.7183 21.9432 43.2265C21.4188 44.3012 20.8897 45.3871 20.2712 46.3518C19.1589 48.0793 17.3012 49.9527 15.5493 48.7973C14.2466 47.938 14.3477 47.0069 14.4253 46.2733C14.4582 45.9726 14.4864 45.7012 14.4112 45.4858ZM51.0904 34.4969C51.333 36.2365 51.0216 38.0055 50.1968 39.5741C60.5554 49.2437 54.1286 55.7837 43.669 53.327L43.4315 53.2664C36.8872 53.7667 30.0959 53.9664 29.2023 49.9684C29.095 49.4752 29.0954 48.9661 29.2035 48.473C29.3117 47.9799 29.5252 47.5134 29.8309 47.1026C30.1365 46.6918 30.5277 46.3456 30.9799 46.0855C31.4322 45.8255 31.9358 45.6572 32.4592 45.5912C32.7027 45.5724 32.9445 45.6435 33.1346 45.7899C33.3247 45.9363 33.4485 46.1468 33.4805 46.3778C33.5125 46.6089 33.4503 46.8429 33.3066 47.0314C33.1629 47.2198 32.9488 47.3484 32.7085 47.3906C32.3758 47.4957 32.0899 47.7048 31.897 47.984C31.7042 48.2632 31.6155 48.5963 31.6454 48.9294C31.6753 49.2626 31.822 49.5765 32.0618 49.8203C32.3016 50.0642 32.6206 50.2239 32.9672 50.2735C33.8843 50.5383 35.3069 50.5831 37.515 50.6549C38.3929 50.6789 39.4041 50.7155 40.5485 50.7649C40.2875 49.9056 40.2522 48.8691 40.2522 47.6733C40.4168 43.0044 40.4638 42.2663 40.1276 42.0307C39.8524 41.8333 39.3139 41.9746 38.3639 40.55C37.1594 38.2033 36.944 35.5054 37.7619 33.0117C38.632 29.5791 39.7208 28.0602 43.5044 31.4345C44.0738 31.3848 44.6468 31.3848 45.2163 31.4345L45.8489 30.896C47.3303 29.6351 48.017 29.0496 48.8447 29.8146C50.0686 31.1251 50.8511 32.7566 51.0904 34.4969ZM49.0775 35.6568C49.151 36.8406 48.8998 38.0221 48.3485 39.085C47.6666 39.7266 48.017 40.0811 48.8964 40.9785C49.4843 41.5775 50.3074 42.4189 51.2245 43.7493C52.4708 45.5621 53.8558 48.4922 52.1392 50.0963C51.1563 51.0206 48.2027 50.8972 46.679 50.8322L46.4485 50.8232C44.9529 50.7178 44.097 50.7559 43.6267 50.3678C42.8036 49.6812 43.1869 47.6755 43.4268 41.2477C43.4809 40.2022 42.9188 40.043 42.2557 39.8567C41.6678 39.693 40.9976 39.5067 40.6143 38.6564C40.009 36.7182 40.0817 34.6446 40.8213 32.7492C41.2681 33.0049 41.5808 33.2719 41.8512 33.503C42.3216 33.9069 42.6578 34.1895 43.3092 34.0639C44.6025 33.8059 45.1387 33.9024 45.4797 33.9629C46.0276 34.0617 46.0652 34.0684 47.93 32.3341C48.6096 33.328 49.0046 34.4767 49.0775 35.6568Z" fill="white"/>
</svg>
